<svg xmlns="http://www.w3.org/2000/svg">
  <symbol id="wallet-icon" viewBox="0 0 24 24">
    <path fill="none" stroke="currentColor" stroke-linecap="round" stroke-linejoin="round" stroke-width="2" d="M19 7V4a1 1 0 0 0-1-1H5a2 2 0 0 0 0 4h15a1 1 0 0 1 1 1v4h-3a2 2 0 0 0 0 4h3v4a1 1 0 0 1-1 1H4a1 1 0 0 1-1-1V7m14 9h.01"/>
  </symbol>
  <symbol id="chart-icon" viewBox="0 0 24 24">
    <path fill="none" stroke="currentColor" stroke-linecap="round" stroke-linejoin="round" stroke-width="2" d="M3 3v18h18M7 16l4-4 4 4 6-6"/>
  </symbol>
  <symbol id="income-icon" viewBox="0 0 24 24">
    <path fill="none" stroke="currentColor" stroke-linecap="round" stroke-linejoin="round" stroke-width="2" d="M12 19V5m-5 5 5-5 5 5"/>
  </symbol>
  <symbol id="expense-icon" viewBox="0 0 24 24">
    <path fill="none" stroke="currentColor" stroke-linecap="round" stroke-linejoin="round" stroke-width="2" d="M12 5v14m-5-5 5 5 5-5"/>
  </symbol>
  <symbol id="piggy-bank-icon" viewBox="0 0 24 24">
    <path fill="none" stroke="currentColor" stroke-linecap="round" stroke-linejoin="round" stroke-width="2" d="M19 5c-1.5 0-2.8 1.4-3 2-3.5-1.5-11-.3-11 5 0 1.8 0 3 2 4.5V20h4v-2h3v2h4v-4c1-.5 1.7-1 2-2h2v-4h-2c0-1-.5-1.5-1-2h0V5zM9 12v0m6 3h2"/>
  </symbol>
</svg>
